# xmcd CD database file
#
# Track frame offsets:
#	150
#	18972
#	34076
#	54259
#	72446
#	91607
#	107718
#	126066
#	141801
#	159383
#	173025
#	188552
#
# Disc length: 2743 seconds
#
# Revision: 0
# Processed by: cddbd v1.5.1PL0 Copyright (c) Steve Scherf et al.
# Submitted via: CDex 1.51
#
DISCID=8f0ab50c
DTITLE=saloon drifters - the thunder rolls
DYEAR=1900
DGENRE=Country
TTITLE0=THE THUNDER ROLLS
TTITLE1=SHE'S NOT CRYING ANYMORE
TTITLE2=SEVEN SPANISH ANGELS
TTITLE3=WHAT COLOUR IS THE WIND
TTITLE4=THE WORKING MAN
TTITLE5=TENNESSEE WALTZ
TTITLE6=LITTLE ROCK
TTITLE7=THE ROSE
TTITLE8=AMAZED
TTITLE9=ON THE OTHER HAND
TTITLE10=ALWAYS ON MY MIND
TTITLE11=THE AMERICAN TRILOGY
EXTD=
EXTT0=
EXTT1=
EXTT2=
EXTT3=
EXTT4=
EXTT5=
EXTT6=
EXTT7=
EXTT8=
EXTT9=
EXTT10=
EXTT11=
PLAYORDER=
